<svg xmlns="http://www.w3.org/2000/svg" xmlns:xlink="http://www.w3.org/1999/xlink" viewBox="0 0 316.21 112.07"><defs><style>.cls-1{fill:none;}.cls-2{clip-path:url(#clip-path);}.cls-3{fill:#0c0c0c;}.cls-4{fill:#fff;}.cls-5{fill:red;}</style><clipPath id="clip-path" transform="translate(-10.9)"><rect class="cls-1" width="338" height="116.41"/></clipPath></defs><title>Logo</title><g id="Layer_2" data-name="Layer 2"><g id="Layer_1-2" data-name="Layer 1"><g id="Bildmaterial_5" data-name="Bildmaterial 5"><g class="cls-2"><g class="cls-2"><path class="cls-3" d="M299.6,112.07H38.4A27.59,27.59,0,0,1,10.9,84.57V27.51A27.59,27.59,0,0,1,38.4,0H299.6A27.59,27.59,0,0,1,327.1,27.51V84.57a27.59,27.59,0,0,1-27.51,27.51" transform="translate(-10.9)"/><path class="cls-3" d="M299.12,107H38.88a23,23,0,0,1-23-23V27.65a23,23,0,0,1,23-23H299.12a23,23,0,0,1,23,23V84a23,23,0,0,1-23,23" transform="translate(-10.9)"/><path class="cls-4" d="M299.12,108.67H38.88A24.68,24.68,0,0,1,14.23,84V27.65A24.68,24.68,0,0,1,38.88,3H299.12a24.68,24.68,0,0,1,24.65,24.65V84a24.68,24.68,0,0,1-24.65,24.65M38.88,6.34A21.34,21.34,0,0,0,17.57,27.65V84a21.34,21.34,0,0,0,21.31,21.31H299.12A21.34,21.34,0,0,0,320.43,84V27.65A21.34,21.34,0,0,0,299.12,6.34Z" transform="translate(-10.9)"/><path class="cls-5" d="M50.56,43.82H37.05l-3,8.44H29.63L41.95,20h3.72L58,52.26H53.64ZM38.34,40.34h11L43.81,25.25Z" transform="translate(-10.9)"/><path class="cls-4" d="M77.48,49.22q-2.39,3.48-7.64,3.48A7.41,7.41,0,0,1,64,50.47q-2-2.23-2-6.59V28.29h2.64V43.55q0,6.84,5.54,6.84,5.76,0,7.29-4.76V28.29h2.66v24H77.52Z" transform="translate(-10.9)"/><path class="cls-4" d="M91.1,22.15v6.14h5v2.17h-5v16a5,5,0,0,0,.72,3,2.79,2.79,0,0,0,2.4,1,16.66,16.66,0,0,0,2.15-.22l.11,2.15a8.67,8.67,0,0,1-2.84.37,4.72,4.72,0,0,1-4-1.59,7.44,7.44,0,0,1-1.24-4.66v-16H84V28.29h4.41V22.15Z" transform="translate(-10.9)"/><path class="cls-4" d="M99.65,39.92A14.1,14.1,0,0,1,101,33.69a10.07,10.07,0,0,1,9.34-5.85,9.85,9.85,0,0,1,7.75,3.36,12.93,12.93,0,0,1,3,8.89v.55a14.23,14.23,0,0,1-1.34,6.26,10,10,0,0,1-3.78,4.29,10.35,10.35,0,0,1-5.56,1.51,9.86,9.86,0,0,1-7.74-3.36,12.9,12.9,0,0,1-3-8.89Zm2.66.73a10.87,10.87,0,0,0,2.23,7.05,7.53,7.53,0,0,0,11.65,0,11.23,11.23,0,0,0,2.23-7.28v-.51a12.21,12.21,0,0,0-1-5,8.2,8.2,0,0,0-2.86-3.53,7.3,7.3,0,0,0-4.21-1.25,7.08,7.08,0,0,0-5.78,2.78,11.24,11.24,0,0,0-2.24,7.28Z" transform="translate(-10.9)"/><polygon class="cls-5" points="133.69 38.01 120.16 38.01 120.16 52.26 115.91 52.26 115.91 20 135.89 20 135.89 23.48 120.16 23.48 120.16 34.54 133.69 34.54 133.69 38.01"/><rect class="cls-4" x="141" y="18.23" width="2.66" height="34.02"/><path class="cls-4" d="M161.6,21.37a1.78,1.78,0,0,1,.49-1.27,1.74,1.74,0,0,1,1.33-.52,1.78,1.78,0,0,1,1.34.52,1.76,1.76,0,0,1,.5,1.27,1.71,1.71,0,0,1-.5,1.25,1.79,1.79,0,0,1-1.34.51,1.75,1.75,0,0,1-1.33-.51,1.73,1.73,0,0,1-.49-1.25m3.12,30.89h-2.66v-24h2.66Z" transform="translate(-10.9)"/><path class="cls-4" d="M180.78,50.46a7,7,0,0,0,4.64-1.56,5.49,5.49,0,0,0,2-4H190a7.49,7.49,0,0,1-1.37,4,8.6,8.6,0,0,1-3.36,2.82,10.11,10.11,0,0,1-4.48,1,9.27,9.27,0,0,1-7.48-3.28q-2.75-3.28-2.76-8.82v-.8a15,15,0,0,1,1.24-6.27,9.55,9.55,0,0,1,3.55-4.21,9.82,9.82,0,0,1,5.42-1.48,9.24,9.24,0,0,1,6.5,2.35A8.55,8.55,0,0,1,190,36.37h-2.55a6.41,6.41,0,0,0-6.69-6.27,6.6,6.6,0,0,0-5.57,2.59q-2,2.59-2,7.26v.78a11.45,11.45,0,0,0,2,7.15,6.65,6.65,0,0,0,5.59,2.57" transform="translate(-10.9)"/><polygon class="cls-4" points="190.09 40.18 187.06 43.11 187.06 52.26 184.4 52.26 184.4 18.23 187.06 18.23 187.06 40.01 189.56 37.3 198.73 28.29 202.07 28.29 191.91 38.39 202.96 52.26 199.79 52.26 190.09 40.18"/><path class="cls-5" d="M227.3,37.88q-5.47-1.57-8-3.87a7.39,7.39,0,0,1-2.49-5.66,7.8,7.8,0,0,1,3-6.3,12.11,12.11,0,0,1,7.92-2.49,13.23,13.23,0,0,1,5.92,1.28,9.73,9.73,0,0,1,4,3.55,9.05,9.05,0,0,1,1.43,4.94h-4.27a5.9,5.9,0,0,0-1.86-4.61A7.57,7.57,0,0,0,227.81,23a7.74,7.74,0,0,0-4.91,1.39,4.62,4.62,0,0,0-1.76,3.85,4.16,4.16,0,0,0,1.67,3.34,16.4,16.4,0,0,0,5.69,2.5,26.29,26.29,0,0,1,6.29,2.49,9.53,9.53,0,0,1,3.37,3.18,8.11,8.11,0,0,1,1.1,4.27,7.54,7.54,0,0,1-3.06,6.28A13,13,0,0,1,228,52.7a15.15,15.15,0,0,1-6.2-1.27,10.44,10.44,0,0,1-4.44-3.49,8.52,8.52,0,0,1-1.56-5h4.27a5.55,5.55,0,0,0,2.16,4.62,9.09,9.09,0,0,0,5.77,1.7,8.36,8.36,0,0,0,5.16-1.37A4.46,4.46,0,0,0,235,44.1a4.38,4.38,0,0,0-1.66-3.67,19.21,19.21,0,0,0-6-2.56" transform="translate(-10.9)"/><path class="cls-4" d="M248.54,22.15v6.14h5v2.17h-5v16a5,5,0,0,0,.72,3,2.79,2.79,0,0,0,2.4,1,16.64,16.64,0,0,0,2.15-.22l.11,2.15a8.67,8.67,0,0,1-2.84.37,4.72,4.72,0,0,1-4-1.59,7.44,7.44,0,0,1-1.24-4.66v-16h-4.41V28.29h4.41V22.15Z" transform="translate(-10.9)"/><path class="cls-4" d="M274.12,52.26a12.6,12.6,0,0,1-.51-3.34,9.25,9.25,0,0,1-3.56,2.8,10.87,10.87,0,0,1-4.57,1,8,8,0,0,1-5.59-1.93,6.27,6.27,0,0,1-2.14-4.87,6.41,6.41,0,0,1,2.91-5.54q2.91-2,8.12-2h4.81V35.6a5.25,5.25,0,0,0-1.59-4,6.54,6.54,0,0,0-4.62-1.47,7.23,7.23,0,0,0-4.58,1.42A4.22,4.22,0,0,0,261,34.91l-2.66,0a6.17,6.17,0,0,1,2.66-5,10.24,10.24,0,0,1,6.53-2.09,9.34,9.34,0,0,1,6.32,2,7.19,7.19,0,0,1,2.38,5.59V46.78A14.08,14.08,0,0,0,277,52v.27Zm-8.33-1.91a8.89,8.89,0,0,0,4.75-1.28,7.56,7.56,0,0,0,3-3.43V40.36h-4.74a11.87,11.87,0,0,0-6.2,1.45,4.35,4.35,0,0,0-2.24,3.87A4.29,4.29,0,0,0,261.91,49a5.64,5.64,0,0,0,3.89,1.33" transform="translate(-10.9)"/><path class="cls-4" d="M287.41,22.15v6.14h5v2.17h-5v16a5,5,0,0,0,.72,3,2.79,2.79,0,0,0,2.4,1,16.66,16.66,0,0,0,2.15-.22l.11,2.15a8.67,8.67,0,0,1-2.84.37,4.72,4.72,0,0,1-4-1.59,7.44,7.44,0,0,1-1.24-4.66v-16h-4.41V28.29h4.41V22.15Z" transform="translate(-10.9)"/><path class="cls-4" d="M302,22.15v6.14h5v2.17h-5v16a5,5,0,0,0,.72,3,2.79,2.79,0,0,0,2.4,1,16.66,16.66,0,0,0,2.15-.22l.11,2.15a8.67,8.67,0,0,1-2.84.37,4.72,4.72,0,0,1-4-1.59,7.44,7.44,0,0,1-1.24-4.66v-16h-4.41V28.29h4.41V22.15Z" transform="translate(-10.9)"/><rect class="cls-4" x="97.06" y="82.7" width="6.24" height="1.32"/><path class="cls-4" d="M123.83,91.73v-19h5.6A7.29,7.29,0,0,1,134.06,74a4.46,4.46,0,0,1,1.58,3.71,4.21,4.21,0,0,1-.8,2.56,4.37,4.37,0,0,1-2.2,1.56,4.6,4.6,0,0,1,3.67,4.54,4.93,4.93,0,0,1-1.62,3.93,6.65,6.65,0,0,1-4.51,1.41Zm1.6-10.46h4.38a4.9,4.9,0,0,0,3.11-.95,3.23,3.23,0,0,0,1.1-2.64,3.18,3.18,0,0,0-1.14-2.7,5.66,5.66,0,0,0-3.45-.87h-4Zm0,1.36v7.75h4.81a4.8,4.8,0,0,0,3.26-1,3.64,3.64,0,0,0,1.2-2.91,3.52,3.52,0,0,0-1.15-2.78,4.63,4.63,0,0,0-3.19-1Z" transform="translate(-10.9)"/><path class="cls-4" d="M139,84.47a8.32,8.32,0,0,1,.79-3.66,5.92,5.92,0,0,1,5.49-3.44,5.79,5.79,0,0,1,4.56,2,7.61,7.61,0,0,1,1.75,5.23v.33a8.37,8.37,0,0,1-.79,3.68,5.87,5.87,0,0,1-2.22,2.52,6.09,6.09,0,0,1-3.27.89,5.81,5.81,0,0,1-4.55-2A7.59,7.59,0,0,1,139,84.78Zm1.56.43A6.39,6.39,0,0,0,141.83,89a4.43,4.43,0,0,0,6.85,0A6.6,6.6,0,0,0,150,84.77v-.3a7.18,7.18,0,0,0-.6-3,4.82,4.82,0,0,0-1.68-2.08,4.29,4.29,0,0,0-2.48-.74,4.16,4.16,0,0,0-3.4,1.64,6.62,6.62,0,0,0-1.32,4.28Zm.81-11.36a1.05,1.05,0,0,1,.29-.75,1,1,0,0,1,.78-.31,1,1,0,0,1,1.08,1.06,1,1,0,0,1-.29.73,1,1,0,0,1-.79.3,1,1,0,0,1-.78-.3,1,1,0,0,1-.29-.73m5.71,0a1.05,1.05,0,0,1,.29-.75,1,1,0,0,1,.78-.31,1,1,0,0,1,1.08,1.06,1,1,0,0,1-.29.73,1.06,1.06,0,0,1-.79.3,1,1,0,0,1-.78-.3,1,1,0,0,1-.29-.73" transform="translate(-10.9)"/><path class="cls-4" d="M160,90.67a4.12,4.12,0,0,0,2.73-.92,3.23,3.23,0,0,0,1.19-2.38h1.5a4.41,4.41,0,0,1-.81,2.35,5.07,5.07,0,0,1-2,1.66A6,6,0,0,1,160,92a5.44,5.44,0,0,1-4.4-1.93A7.8,7.8,0,0,1,154,84.87V84.4a8.83,8.83,0,0,1,.73-3.69,5.61,5.61,0,0,1,2.09-2.47,5.76,5.76,0,0,1,3.18-.87,5.44,5.44,0,0,1,3.82,1.38,5,5,0,0,1,1.61,3.64h-1.5A3.77,3.77,0,0,0,160,78.7a3.89,3.89,0,0,0-3.28,1.53,6.89,6.89,0,0,0-1.17,4.27V85a6.74,6.74,0,0,0,1.17,4.21A3.91,3.91,0,0,0,160,90.67" transform="translate(-10.9)"/><polygon class="cls-4" points="160.96 84.63 159.18 86.35 159.18 91.73 157.62 91.73 157.62 71.71 159.18 71.71 159.18 84.52 160.65 82.93 166.05 77.63 168.01 77.63 162.03 83.57 168.53 91.73 166.67 91.73 160.96 84.63"/><path class="cls-4" d="M184,74v3.61h2.92v1.28H184v9.4a2.94,2.94,0,0,0,.42,1.75,1.64,1.64,0,0,0,1.41.57,9.68,9.68,0,0,0,1.26-.13l.07,1.27a5.12,5.12,0,0,1-1.67.22,2.78,2.78,0,0,1-2.33-.93,4.39,4.39,0,0,1-.73-2.74V78.91h-2.59V77.63h2.59V74Z" transform="translate(-10.9)"/><path class="cls-4" d="M195.61,92a6.13,6.13,0,0,1-3.25-.89,6,6,0,0,1-2.26-2.47,7.7,7.7,0,0,1-.81-3.55v-.56a8.31,8.31,0,0,1,.79-3.66,6.29,6.29,0,0,1,2.2-2.56,5.41,5.41,0,0,1,3-.93,5.09,5.09,0,0,1,4.07,1.75,7.11,7.11,0,0,1,1.5,4.79v.87H190.84v.3a5.9,5.9,0,0,0,1.37,4,4.37,4.37,0,0,0,3.46,1.6,5.1,5.1,0,0,0,2.21-.46,4.92,4.92,0,0,0,1.74-1.46l1,.74a5.69,5.69,0,0,1-5,2.49m-.29-13.29a3.9,3.9,0,0,0-3,1.29,6,6,0,0,0-1.46,3.46h8.46v-.17A5.18,5.18,0,0,0,198.19,80a3.59,3.59,0,0,0-2.87-1.28" transform="translate(-10.9)"/><path class="cls-4" d="M205.42,77.63l.05,2.41a5.61,5.61,0,0,1,2-2,5.16,5.16,0,0,1,2.62-.68,4.23,4.23,0,0,1,3.38,1.28,5.75,5.75,0,0,1,1.12,3.83v9.25H213V82.46a4.31,4.31,0,0,0-.8-2.81,3.14,3.14,0,0,0-2.52-.93,4,4,0,0,0-2.56.91,5.3,5.3,0,0,0-1.65,2.44v9.65h-1.55V77.63Z" transform="translate(-10.9)"/><rect class="cls-4" x="212.8" y="82.7" width="6.24" height="1.32"/><rect class="cls-4" x="20.01" y="61.71" width="276.18" height="2"/></g></g></g></g></g></svg>