<svg xmlns="http://www.w3.org/2000/svg" viewBox="0 0 87.47 87.47"><defs><style>.cls-1{fill:none;stroke:#fff;stroke-miterlimit:10;}.cls-2{fill:#fff;}</style></defs><title>icon_aufbereitung</title><g id="Layer_2" data-name="Layer 2"><g id="Layer_1-2" data-name="Layer 1"><rect class="cls-1" x="0.5" y="0.5" width="86.47" height="86.47"/><path class="cls-2" d="M77.51,11.34a2.69,2.69,0,0,0-3.24.65l-6,6a36,36,0,0,0-11.33-7.25A35,35,0,0,0,43.73,8.15,34.46,34.46,0,0,0,29.93,11a35.81,35.81,0,0,0-11.36,7.59A36.12,36.12,0,0,0,11,29.93a35.2,35.2,0,0,0,0,27.61,35.16,35.16,0,0,0,19,18.95,34.46,34.46,0,0,0,13.8,2.83A35.35,35.35,0,0,0,58.89,76a34.87,34.87,0,0,0,12.23-9.48,1.53,1.53,0,0,0,.35-1,1.35,1.35,0,0,0-.44-1L64.68,58.1a1.78,1.78,0,0,0-1.16-.42,1.46,1.46,0,0,0-1.07.56,23.55,23.55,0,0,1-27.91,7.34A23.43,23.43,0,0,1,21.89,52.93a23.43,23.43,0,0,1,0-18.39A23.43,23.43,0,0,1,34.54,21.89a23.66,23.66,0,0,1,25.37,4.47l-6.4,6.39a2.64,2.64,0,0,0-.65,3.2A2.77,2.77,0,0,0,55.6,37.8H76.35a3,3,0,0,0,3-3V14.08A2.78,2.78,0,0,0,77.51,11.34Z"/></g></g></svg>