<svg xmlns="http://www.w3.org/2000/svg" viewBox="0 0 105.86 85.94"><defs><style>.cls-1{fill:#fff;}</style></defs><title>Asset 2</title><g id="Layer_2" data-name="Layer 2"><g id="Layer_1-2" data-name="Layer 1"><path class="cls-1" d="M102.12,6.67H91V3.74A3.74,3.74,0,0,0,87.28,0h-16a3.74,3.74,0,0,0-3.74,3.74V6.67H38.35V3.74A3.74,3.74,0,0,0,34.61,0h-16a3.74,3.74,0,0,0-3.74,3.74V6.67H3.74A3.74,3.74,0,0,0,0,10.41V14.2a3.74,3.74,0,0,0,3.1,3.68V77a9,9,0,0,0,9,9H93.79a9,9,0,0,0,9-9V17.88a3.74,3.74,0,0,0,3.1-3.68V10.41A3.74,3.74,0,0,0,102.12,6.67ZM35.31,46.15H16.2a3.33,3.33,0,0,1,0-6.67H35.31a3.33,3.33,0,1,1,0,6.67Zm54.35,0H83.44v6.22a3.33,3.33,0,1,1-6.67,0V46.15H70.54a3.33,3.33,0,0,1,0-6.67h6.22V33.26a3.33,3.33,0,1,1,6.67,0v6.22h6.22a3.33,3.33,0,1,1,0,6.67Z"/></g></g></svg>