<svg xmlns="http://www.w3.org/2000/svg" viewBox="0 0 151.05 151.05"><defs><style>.cls-1{opacity:0;}.cls-2{fill:#fff;}</style></defs><title>Asset 7</title><g id="Layer_2" data-name="Layer 2"><g id="Layer_1-2" data-name="Layer 1"><g class="cls-1"><rect class="cls-2" width="151.05" height="151.05"/></g><path class="cls-2" d="M124.72,39.23h-11.1V36.29a3.74,3.74,0,0,0-3.74-3.74h-16a3.74,3.74,0,0,0-3.74,3.74v2.93H60.95V36.29a3.74,3.74,0,0,0-3.74-3.74h-16a3.74,3.74,0,0,0-3.74,3.74v2.93H26.33A3.74,3.74,0,0,0,22.6,43v3.79a3.74,3.74,0,0,0,3.1,3.68v59.09a9,9,0,0,0,9,9h81.72a9,9,0,0,0,9-9V50.44a3.74,3.74,0,0,0,3.1-3.68V43A3.74,3.74,0,0,0,124.72,39.23ZM57.91,78.71H38.79a3.33,3.33,0,0,1,0-6.67H57.91a3.33,3.33,0,0,1,0,6.67Zm54.35,0H106v6.22a3.33,3.33,0,1,1-6.67,0V78.71H93.14a3.33,3.33,0,0,1,0-6.67h6.22V65.81a3.33,3.33,0,1,1,6.67,0V72h6.22a3.33,3.33,0,1,1,0,6.67Z"/></g></g></svg>