<svg xmlns="http://www.w3.org/2000/svg" viewBox="0 0 87.47 87.47"><defs><style>.cls-1{fill:none;stroke:#fff;stroke-miterlimit:10;}.cls-2{fill:#fff;}</style></defs><title>icon_service</title><g id="Layer_2" data-name="Layer 2"><g id="Layer_1-2" data-name="Layer 1"><rect class="cls-1" x="0.5" y="0.5" width="86.47" height="86.47"/><path class="cls-2" d="M79.28,36.54c-.45-4-11.17,0-11.17,0l-.63,5.67a7.09,7.09,0,0,0-.72-.38L64.05,30c-1-5.62-5.24-9.76-11.42-9.55H36.73a13.4,13.4,0,0,1-.44,1.92H53.7a7.92,7.92,0,0,1,7.82,6.16l2.91,11.66-.55,0H30.17V51.56H51.06V54.1H30.18v.74H50.85v2.55H30.18v9.55h22.3v6c0,2.46,3,4.45,6.79,4.45s6.78-2,6.78-4.45V66.24c3.2-1.21,5.43-3.86,5.43-6.94V48.48a7.21,7.21,0,0,0-3.44-5.92L79.28,42S79.73,40.52,79.28,36.54ZM66.42,57.2H54.17V51.37H66.42Z"/><rect class="cls-2" x="29.87" y="54.84" width="0.31" height="2.55"/><rect class="cls-2" x="30.08" y="51.56" width="0.1" height="2.54"/><path class="cls-2" d="M34.32,18.76A13.18,13.18,0,0,0,27.7,7.34V17.88l-6.55,3.78L14.6,17.87V7.34a13.16,13.16,0,0,0,.61,23.16V73.91a6.21,6.21,0,1,0,12.42,0l0-43.69A13.16,13.16,0,0,0,34.32,18.76ZM22.79,76.66a2.37,2.37,0,1,1,0-3.36A2.37,2.37,0,0,1,22.79,76.66Z"/></g></g></svg>