<svg xmlns="http://www.w3.org/2000/svg" viewBox="0 0 151.05 151.05"><defs><style>.cls-1{opacity:0;}.cls-2{fill:#fff;}</style></defs><title>Asset 8</title><g id="Layer_2" data-name="Layer 2"><g id="Layer_1-2" data-name="Layer 1"><g class="cls-1"><rect class="cls-2" width="151.05" height="151.05"/></g><path class="cls-2" d="M111.17,43.5l-7.24-7.24a1.81,1.81,0,0,0-2.56,2.56l6,6-6,6a1.81,1.81,0,0,0-.53,1.28v5.43a7.24,7.24,0,0,0,7.24,7.24V95.42a1.81,1.81,0,0,1-3.62,0V91.8A5.43,5.43,0,0,0,99,86.38H97.23v-47A7.24,7.24,0,0,0,90,32.11H53.82a7.24,7.24,0,0,0-7.24,7.24v65.12a7.24,7.24,0,0,0-7.24,7.24v5.43a1.81,1.81,0,0,0,1.81,1.81h61.5a1.81,1.81,0,0,0,1.81-1.81V111.7a7.24,7.24,0,0,0-7.24-7.24V90H99a1.81,1.81,0,0,1,1.81,1.81v3.62a5.43,5.43,0,0,0,10.85,0V44.78A1.81,1.81,0,0,0,111.17,43.5ZM90,62.9a1.81,1.81,0,0,1-1.81,1.81H55.63a1.81,1.81,0,0,1-1.81-1.81V41.16a1.81,1.81,0,0,1,1.81-1.81H88.19A1.81,1.81,0,0,1,90,41.16Z"/></g></g></svg>