<svg xmlns="http://www.w3.org/2000/svg" viewBox="0 0 87.47 87.47"><defs><style>.cls-1{fill:none;stroke:#fff;stroke-miterlimit:10;}.cls-2{fill:#fff;}</style></defs><title>icon_jahres</title><g id="Layer_2" data-name="Layer 2"><g id="Layer_1-2" data-name="Layer 1"><rect class="cls-1" x="0.5" y="0.5" width="86.47" height="86.47"/><path class="cls-2" d="M31.88,66H18.59A4.58,4.58,0,0,1,14,61.42V20.22a4.57,4.57,0,0,1,4.64-4.52H50.76a4.54,4.54,0,0,1,4.61,4.52V54.75l5.94-7.07V15.81a6,6,0,0,0-6-6.05H13.78A5.77,5.77,0,0,0,8,15.57V66a6,6,0,0,0,6,6.06H37.36l-2.75-2.4A10.6,10.6,0,0,1,31.88,66Z"/><path class="cls-2" d="M48.29,23.32H21.61a3,3,0,0,0,0,5.94H48.28a3,3,0,0,0,0-5.94Z"/><path class="cls-2" d="M48.29,33.22H21.61a3,3,0,0,0,0,5.94H48.28a3,3,0,0,0,0-5.94Z"/><path class="cls-2" d="M48.29,43.12H21.61a2.89,2.89,0,1,0,0,5.78H48.28a2.89,2.89,0,1,0,0-5.78Z"/><path class="cls-2" d="M18.64,55.45a2.9,2.9,0,0,0,3,2.89h10A12.27,12.27,0,0,1,33.49,55a10.56,10.56,0,0,1,3.18-2.46H21.61A2.92,2.92,0,0,0,18.64,55.45Z"/><path class="cls-2" d="M48.29,52.56H46.06a8,8,0,0,1,2.06,1.37l3,2.54a2.93,2.93,0,0,0-2.79-3.91Z"/><path class="cls-2" d="M77.63,44.62a5.18,5.18,0,0,0-7.31.59l-17,20-8.52-7.32A5.19,5.19,0,0,0,38,65.74L50.46,76.45a5.19,5.19,0,0,0,3.38,1.25h.41a5.19,5.19,0,0,0,3.54-1.81L78.22,51.94A5.2,5.2,0,0,0,77.63,44.62Z"/></g></g></svg>