<svg xmlns="http://www.w3.org/2000/svg" viewBox="0 0 87.47 87.47"><defs><style>.cls-1{fill:none;stroke:#fff;stroke-miterlimit:10;}.cls-2{fill:#fff;}</style></defs><title>icon_unterhalt</title><g id="Layer_2" data-name="Layer 2"><g id="Layer_1-2" data-name="Layer 1"><rect class="cls-1" x="0.5" y="0.5" width="86.47" height="86.47"/><path class="cls-2" d="M48.18,21.75V13a2.78,2.78,0,0,0-4.42-2.25A21.58,21.58,0,0,0,34.84,26.2h8.89A4.45,4.45,0,0,0,48.18,21.75Z"/><path class="cls-2" d="M79.29,27.14a21.43,21.43,0,0,0-8.9-16.34A2.78,2.78,0,0,0,66,13.05V23.83a6.84,6.84,0,0,1-6.82,6.82H34.84v6.91L9.45,63a4.44,4.44,0,0,0,0,6.29l6.67,6.67a4.44,4.44,0,0,0,3.15,1.3A4.33,4.33,0,0,0,22.41,76L47.8,50.66h9.28c.69,0,1.28,0,1.93-.06,11.76-1,20.88-11.68,20.28-23.46ZM21.49,68.32a4.45,4.45,0,1,1,4.45-4.45A4.45,4.45,0,0,1,21.49,68.32ZM46,41.77H41.51l2.22-4.45h4.45Zm8.89,0H50.41l2.22-4.45h4.45Zm8.9,0H59.3l2.23-4.45H66Z"/></g></g></svg>