<svg xmlns="http://www.w3.org/2000/svg" viewBox="0 0 87.47 87.47"><defs><style>.cls-1{fill:none;stroke:#fff;stroke-miterlimit:10;}.cls-2{fill:#fff;}</style></defs><title>icon_karosserie</title><g id="Layer_2" data-name="Layer 2"><g id="Layer_1-2" data-name="Layer 1"><rect class="cls-1" x="0.5" y="0.5" width="86.47" height="86.47"/><path class="cls-2" d="M78.91,34.13a1.85,1.85,0,0,0-1.41-.67H70.57C68.86,29,66.64,24.54,64.1,22.87c-8.75-5.76-32-5.76-40.73,0C20.83,24.54,18.62,29,16.9,33.46H10a1.82,1.82,0,0,0-1.41.67,1.79,1.79,0,0,0-.37,1.52l1,5A1.83,1.83,0,0,0,11,42.08h2.05a12.34,12.34,0,0,0-3,8,12.07,12.07,0,0,0,3.81,9.05l.08.06v7a2.74,2.74,0,0,0,2.73,2.73H23.1a2.74,2.74,0,0,0,2.74-2.73v-2.8H61.63v2.8a2.73,2.73,0,0,0,2.73,2.73h6.39a2.74,2.74,0,0,0,2.74-2.73V59.37a12.52,12.52,0,0,0,.79-17.3h2.19a1.82,1.82,0,0,0,1.79-1.45l1-5A1.82,1.82,0,0,0,78.91,34.13Zm-52.54-6.7c7-4.59,27.75-4.59,34.73,0,1.35.89,3.1,4.49,4.69,8.89H21.67C23.27,31.92,25,28.33,26.37,27.43ZM18.19,50.8a5.38,5.38,0,1,1,5.38,5.38A5.37,5.37,0,0,1,18.19,50.8ZM64,56.18a5.38,5.38,0,1,1,5.38-5.38A5.38,5.38,0,0,1,64,56.18Z"/></g></g></svg>