<svg xmlns="http://www.w3.org/2000/svg" viewBox="0 0 87.47 87.47"><defs><style>.cls-1{fill:none;stroke:#fff;stroke-miterlimit:10;}.cls-2{fill:#fff;}</style></defs><title>icon_technisch</title><g id="Layer_2" data-name="Layer 2"><g id="Layer_1-2" data-name="Layer 1"><rect class="cls-1" x="0.5" y="0.5" width="86.47" height="86.47"/><path class="cls-2" d="M40.13,20.16,25.25,35a2.19,2.19,0,0,0,0,3.09L31.17,44a2.17,2.17,0,0,0,3.09,0l1-1,9.1,9.1-1,1a2.18,2.18,0,0,0,0,3.08l5.93,5.93a2.18,2.18,0,0,0,3.08,0L67.24,47.27ZM51.14,44a5.48,5.48,0,1,1,0-7.75A5.5,5.5,0,0,1,51.14,44Z"/><path class="cls-2" d="M78.68,32.75l-24-24a2.18,2.18,0,0,0-3.08,0L48.27,12,75.39,39.13l3.29-3.3A2.18,2.18,0,0,0,78.68,32.75Z"/><rect class="cls-2" x="56.36" y="10.47" width="2.79" height="38.34" transform="translate(-4.05 49.52) rotate(-45)"/><path class="cls-2" d="M38.76,57a6.56,6.56,0,0,1-.08-4.33l-3.9-3.9a6.56,6.56,0,0,1-4.33-.08L19,59.32a10.06,10.06,0,1,0,9.12,9.12ZM22.09,73.36a5.7,5.7,0,1,1-2.86-9.6h0a5.72,5.72,0,0,1,4.4,4.4h0A5.69,5.69,0,0,1,22.09,73.36Z"/></g></g></svg>