<svg xmlns="http://www.w3.org/2000/svg" viewBox="0 0 72.35 86.82"><defs><style>.cls-1{fill:#fff;}</style></defs><title>Asset 4</title><g id="Layer_2" data-name="Layer 2"><g id="Layer_1-2" data-name="Layer 1"><path class="cls-1" d="M71.82,11.38,64.59,4.15A1.81,1.81,0,0,0,62,6.71l6,6-6,6a1.81,1.81,0,0,0-.53,1.28v5.43a7.24,7.24,0,0,0,7.24,7.24V63.31a1.81,1.81,0,1,1-3.62,0V59.69a5.43,5.43,0,0,0-5.43-5.43H57.88v-47A7.24,7.24,0,0,0,50.65,0H14.47A7.24,7.24,0,0,0,7.24,7.24V72.35A7.24,7.24,0,0,0,0,79.59V85a1.81,1.81,0,0,0,1.81,1.81h61.5A1.81,1.81,0,0,0,65.12,85V79.59a7.24,7.24,0,0,0-7.24-7.24V57.88h1.81a1.81,1.81,0,0,1,1.81,1.81v3.62a5.43,5.43,0,1,0,10.85,0V12.66A1.81,1.81,0,0,0,71.82,11.38ZM50.65,30.78a1.81,1.81,0,0,1-1.81,1.81H16.28a1.81,1.81,0,0,1-1.81-1.81V9a1.81,1.81,0,0,1,1.81-1.81H48.84A1.81,1.81,0,0,1,50.65,9Z"/></g></g></svg>