<svg xmlns="http://www.w3.org/2000/svg" viewBox="0 0 152.05 152.05"><defs><style>.cls-1{fill:#fff;}.cls-2{fill:none;stroke:#fff;stroke-miterlimit:10;}</style></defs><title>Asset 3</title><g id="Layer_2" data-name="Layer 2"><g id="Layer_1-2" data-name="Layer 1"><path class="cls-1" d="M35,105.56a8.13,8.13,0,0,0,11.5,11.5l26.7-26.7L61.69,78.86Z"/><polygon class="cls-1" points="101.72 56.07 113.35 50.06 119.44 38.29 113.76 32.62 102 38.71 95.97 50.33 81.83 64.49 87.57 70.23 101.72 56.07"/><path class="cls-1" d="M104.27,86.94l-1.1-.11a16.13,16.13,0,0,0-5.62,1.06L64.17,54.5a16.13,16.13,0,0,0,1.06-5.62l-.11-1.1A16.1,16.1,0,0,0,42,34.24L52.8,45A5.3,5.3,0,0,1,54,47a5.42,5.42,0,0,1-8.89,5.71l-10.8-10.8A16.1,16.1,0,0,0,47.87,65l1.1.11a16.26,16.26,0,0,0,5.62-1.05L88,97.47a16.38,16.38,0,0,0-1,5.62l.11,1.1a16.2,16.2,0,0,0,16.15,15.17,15.92,15.92,0,0,0,7-1.63l-10.8-10.8A5.53,5.53,0,0,1,98.12,105a5.4,5.4,0,0,1,5.06-7.31,5.33,5.33,0,0,1,1.89.37A5.2,5.2,0,0,1,107,99.26l10.8,10.8a16,16,0,0,0,1.63-7A16.22,16.22,0,0,0,104.27,86.94Z"/><rect class="cls-2" x="0.5" y="0.5" width="151.05" height="151.05"/></g></g></svg>