<svg xmlns="http://www.w3.org/2000/svg" viewBox="0 0 152.05 152.05"><defs><style>.cls-1{fill:#fff;}.cls-2{fill:none;stroke:#fff;stroke-miterlimit:10;}</style></defs><title>Asset 5</title><g id="Layer_2" data-name="Layer 2"><g id="Layer_1-2" data-name="Layer 1"><path class="cls-1" d="M78.07,93.95a4.76,4.76,0,0,0,0-9.52L56.52,68.58l16.79,20.9A4.77,4.77,0,0,0,78.07,93.95Z"/><rect class="cls-1" x="52.28" y="107.99" width="47.5" height="11.27"/><path class="cls-1" d="M117.2,49.85a58.25,58.25,0,0,0-92.13,69.41H36l8-4.6-3.52-6.09-10.24,5.91A51.21,51.21,0,0,1,24.51,91c0-1.49.07-3,.19-4.44l12.2,2.15,1.22-6.92L25.78,79.64A51.5,51.5,0,0,1,39.83,54.4l8.37,10,5.39-4.52-8.43-10A51.23,51.23,0,0,1,72.51,39.63V53h7V39.63A51.24,51.24,0,0,1,106.9,49.81l-8.43,10,5.39,4.52,8.37-10a51.5,51.5,0,0,1,14.05,25.24l-12.35,2.18,1.22,6.92,12.2-2.15c.13,1.46.19,2.94.19,4.44a51.2,51.2,0,0,1-5.66,23.46l-10.24-5.91-3.52,6.09,8,4.6H127a58.29,58.29,0,0,0-9.77-69.41Z"/><rect class="cls-2" x="0.5" y="0.5" width="151.05" height="151.05"/></g></g></svg>